<?xml version="1.0" encoding="UTF-8"?>
<svg id="logo" data-name="logo" xmlns="http://www.w3.org/2000/svg" width="100" height="100" xmlns:xlink="http://www.w3.org/1999/xlink" viewBox="0 0 128 128" shape-rendering="geometricPrecision">
  <defs>
    <style>
      .cls-1 {
        fill: oklch(0.65 0.241 230);
      }

      .cls-2 {
        fill: url(#logo_gradient);
      }

      path {
        shape-rendering: geometricPrecision;
        -webkit-font-smoothing: antialiased;
      }
    </style>
    <linearGradient id="logo_gradient" x1="16.03012" y1="63.99518" x2="111.98289" y2="63.99518" gradientUnits="userSpaceOnUse">
      <stop offset="0" stop-color="#a9d4f2"/>
      <stop offset=".04707" stop-color="#add3e6"/>
      <stop offset=".13037" stop-color="#b8d0c8"/>
      <stop offset=".24013" stop-color="#c9cc98"/>
      <stop offset=".3722" stop-color="#e2c755"/>
      <stop offset=".5107" stop-color="#ffc107"/>
      <stop offset=".5909" stop-color="#cdb337"/>
      <stop offset=".73937" stop-color="#769b8b"/>
      <stop offset=".86074" stop-color="oklch(0.72 0.202 230)"/>
      <stop offset=".94871" stop-color="oklch(0.65 0.241 230)"/>
      <stop offset=".99438" stop-color="oklch(0.59 0.249 230)"/>
    </linearGradient>
  </defs>
  <path class="cls-2" d="M91.03274,84.9503c-5.36731,0-10.73462-2.04326-14.82053-6.12947l-8.71816-8.71816,2.61518-2.61518,8.71816,8.71816c6.73059,6.73029,17.68043,6.72968,24.41102,0,6.72998-6.73029,6.72998-17.68103,0-24.41117-3.26024-3.26024-7.59479-5.05562-12.20536-5.05562-4.61087,0-8.94542,1.79537-12.20536,5.05562l-27.02665,27.02634c-8.17227,8.17242-21.46925,8.17212-29.64182.0003-8.17212-8.17242-8.17212-21.46985,0-29.64212,8.17227-8.17197,21.46925-8.17227,29.64182,0l8.71831,8.71831-2.61548,2.61548-8.71831-8.71831c-6.72998-6.73013-17.68088-6.72983-24.41087,0-6.72998,6.73013-6.72998,17.68088,0,24.41117,6.73013,6.72968,17.68073,6.72968,24.41087,0l27.02665-27.02665c3.95858-3.95873,9.22205-6.13895,14.82084-6.13895,5.59849,0,10.86195,2.18022,14.82053,6.13895,8.17242,8.17227,8.17242,21.4697,0,29.64182-4.08591,4.08621-9.45322,6.12947-14.82084,6.12947Z"/>
  <path class="cls-1" d="M110.86688,44.16614c-5.29779-5.29779-12.34167-8.21545-19.83417-8.21545s-14.53607,2.91766-19.83386,8.21545l-16.78241,16.78241-7.19244-7.19238c-2.73615-2.73633-6.37415-4.24323-10.24377-4.24323s-7.50769,1.50702-10.24384,4.24323c-5.64844,5.64844-5.64844,14.83905,0,20.48749,2.73615,2.73651,6.37421,4.24335,10.24384,4.24335s7.50763-1.50684,10.24377-4.24304l27.02655-27.02649c4.4826-4.48279,10.44263-6.95154,16.78217-6.95154,6.3399,0,12.29993,2.46875,16.78253,6.95154,9.25397,9.25397,9.25397,24.3111,0,33.56506-4.4826,4.4826-10.44263,6.95148-16.78253,6.95148-6.33954,0-12.29956-2.46887-16.78217-6.95148l-1.52582,1.52551,1.52582-1.52582-8.7182-8.7182-3.05145,3.05164,8.71796,8.7182.00018-.00018c5.29773,5.29785,12.34161,8.21564,19.83368,8.21564,7.49249,0,14.53638-2.91772,19.83417-8.21545,10.93634-10.93665,10.93634-28.73126,0-39.66772ZM44.17267,71.19232c-1.9212,1.92133-4.47552,2.97937-7.19244,2.97937-2.7171,0-5.2713-1.05804-7.1925-2.97937-3.96594-3.96582-3.96594-10.41888,0-14.38483,1.9212-1.9212,4.4754-2.97925,7.1925-2.97925,2.71692,0,5.27124,1.05804,7.19244,2.97925l7.19238,7.19244-7.19238,7.19238Z"/>
  <g>
    <path class="cls-1" d="M101.27703,53.75616c-2.73651-2.73633-6.37451-4.24323-10.24402-4.24323-3.86975,0-7.50775,1.5069-10.24426,4.24323l-27.02606,27.02606,3.05139,3.05164,16.78229-16.78229,7.19238,7.19238c2.73651,2.73621,6.37451,4.24304,10.24426,4.24304,3.86951,0,7.50751-1.50684,10.24402-4.24304,5.64844-5.64874,5.64844-14.83936,0-20.48779ZM98.2254,71.19232c-3.96552,3.96674-10.4198,3.96613-14.38501,0l-7.19244-7.19238,7.19244-7.19244c3.96521-3.96594,10.41919-3.96625,14.38501,0,3.96606,3.96594,3.96606,10.41901,0,14.38483Z"/>
    <path class="cls-1" d="M36.98022,87.73401c-6.33972,0-12.29974-2.46887-16.78253-6.95178-4.48279-4.48267-6.95154-10.44269-6.95154-16.78223s2.46875-12.29974,6.95154-16.78253,10.44281-6.95154,16.78253-6.95154,12.29968,2.46875,16.78247,6.95154l8.7182,8.71814,3.05145-3.05133-8.71826-8.71814c-5.29779-5.29779-12.34174-8.21545-19.83386-8.21545s-14.53607,2.91766-19.83386,8.21545c-5.29797,5.29779-8.21552,12.34155-8.21552,19.83386s2.91772,14.53607,8.21552,19.83356c5.29779,5.29803,12.34155,8.21576,19.83386,8.21576s14.53607-2.91772,19.83386-8.21545l-3.05139-3.05133c-4.48279,4.4826-10.44293,6.95148-16.78247,6.95148Z"/>
  </g>
  <path class="cls-1" d="M17.13982,83.8339c5.29779,5.29779,12.34167,8.21545,19.83417,8.21545s14.53607-2.91766,19.83386-8.21545l16.78241-16.78241,7.19244,7.19238c2.73615,2.73633,6.37415,4.24323,10.24377,4.24323s7.50769-1.50702,10.24384-4.24323c5.64844-5.64844,5.64844-14.83905,0-20.48749-2.73615-2.73651-6.37421-4.24335-10.24384-4.24335s-7.50763,1.50684-10.24377,4.24304l-27.02655,27.02649c-4.4826,4.48279-10.44263,6.95154-16.78217,6.95154-6.3399,0-12.29993-2.46875-16.78253-6.95154-9.25397-9.25397-9.25397-24.3111,0-33.56506,4.4826-4.4826,10.44263-6.95148,16.78253-6.95148,6.33954,0,12.29956,2.46887,16.78217,6.95148l1.52582-1.52551-1.52582,1.52582,8.7182,8.7182,3.05145-3.05164-8.71796-8.7182-.00018.00018c-5.29773-5.29785-12.34161-8.21564-19.83368-8.21564-7.49249,0-14.53638,2.91772-19.83417,8.21545-10.93634,10.93665-10.93634,28.73126,0,39.66772ZM83.83403,56.80771c1.9212-1.92133,4.47552-2.97937,7.19244-2.97937,2.7171,0,5.2713,1.05804,7.1925,2.97937,3.96594,3.96582,3.96594,10.41888,0,14.38483-1.9212,1.9212-4.4754,2.97925-7.1925,2.97925-2.71692,0-5.27124-1.05804-7.19244-2.97925l-7.19238-7.19244,7.19238-7.19238Z"/>
</svg>